Coordinates
version=1
nRows=4
nColumns=63
inDegrees=yes

Units are S.I. units (second, meters, Newtons, ...)
If the header above contains a line with 'inDegrees', this indicates whether rotational values are in degrees (yes) or radians (no).

endheader
time	pelvis_tilt	pelvis_list	pelvis_rotation	pelvis_tx	pelvis_ty	pelvis_tz	hip_flexion_r	hip_adduction_r	hip_rotation_r	knee_angle_r	knee_angle_r_beta	ankle_angle_r	subtalar_angle_r	mtp_angle_r	hip_flexion_l	hip_adduction_l	hip_rotation_l	knee_angle_l	knee_angle_l_beta	ankle_angle_l	subtalar_angle_l	mtp_angle_l	L5_S1_Flex_Ext	L5_S1_Lat_Bending	L5_S1_axial_rotation	L4_L5_Flex_Ext	L4_L5_Lat_Bending	L4_L5_axial_rotation	L3_L4_Flex_Ext	L3_L4_Lat_Bending	L3_L4_axial_rotation	L2_L3_Flex_Ext	L2_L3_Lat_Bending	L2_L3_axial_rotation	L1_L2_Flex_Ext	L1_L2_Lat_Bending	L1_L2_axial_rotation	L1_T12_Flex_Ext	L1_T12_Lat_Bending	L1_T12_axial_rotation	Abs_r3	Abs_r2	Abs_r1	Abs_t1	Abs_t2	neck_flexion	neck_bending	neck_rotation	arm_flex_r	arm_add_r	arm_rot_r	elbow_flex_r	pro_sup_r	wrist_flex_r	wrist_dev_r	arm_flex_l	arm_add_l	arm_rot_l	elbow_flex_l	pro_sup_l	wrist_flex_l	wrist_dev_l
      7.85800000	    -43.79868701	      1.21243670	     -3.11470652	     -0.38206653	      1.12262562	      0.01539685	     80.88353864	     -3.18103349	     -3.29905754	     60.21174726	      1.05089324	     -1.43823072	     -6.36343473	      0.00000000	    115.05433703	     -2.07172939	      8.94301362	     91.62952095	      1.59923683	     15.33360128	     -9.20290309	      0.00000000	     -0.08381654	      0.02227987	      0.43574153	     -0.15565569	      0.02963222	      0.46297538	     -0.13770219	      0.05417127	      0.46297538	     -0.09579392	      0.05417127	      0.38127384	     -0.07783204	      0.04543311	      0.35404000	     -0.04789277	      0.03451151	      0.32680615	     -0.59869315	      0.25203431	      2.42346368	      0.00000000	      0.00000000	     -0.00000000	      0.00000000	      0.00000000	     61.01914412	    -11.17495904	     19.11074436	     40.63176618	     59.41775358	      0.00000000	      5.00000015	     64.06559760	     -9.40531670	     27.09086803	     36.57485457	     60.46610287	      0.00000000	      5.00000015
      7.86700000	    -43.81690029	      0.86995203	     -3.38491474	     -0.38252558	      1.12224388	      0.01582860	     81.74735701	     -2.98053574	     -3.46785693	     62.79693687	      1.09601331	     -1.17077664	     -6.56445041	      0.00000000	    114.16853959	     -2.26213135	      9.37324926	     89.47748907	      1.56167679	     15.24224936	     -9.16221277	      0.00000000	     -0.08152552	      0.06514652	      0.49898016	     -0.15140104	      0.08664487	      0.53016642	     -0.13393828	      0.15839724	      0.53016642	     -0.09317552	      0.15839724	      0.43660764	     -0.07570460	      0.13284678	      0.40542138	     -0.04658368	      0.10091195	      0.37423512	     -0.58232864	      0.73695042	      2.77517794	      0.00000000	      0.00000000	     -0.00000000	      0.00000000	      0.00000000	     61.12402045	    -11.25093195	     19.05881689	     40.57453779	     59.41413959	      0.00000000	      5.00000015	     64.07819764	     -9.22829104	     26.89855478	     36.50544112	     60.44152966	      0.00000000	      5.00000015
      7.87500000	    -43.80229842	      0.56182732	     -3.25970037	     -0.38291108	      1.12203989	      0.01568813	     82.64091188	     -3.25138173	     -3.78385630	     65.43566485	      1.14206780	     -1.09291013	     -6.71300872	      0.00000000	    113.05437167	     -2.14687222	      9.51176412	     87.07823561	      1.51980192	     15.27619059	     -9.20624501	      0.00000000	     -0.08356026	      0.10309879	      0.48176117	     -0.15517977	      0.13712138	      0.51187125	     -0.13728116	      0.25067439	      0.51187125	     -0.09550103	      0.25067439	      0.42154103	     -0.07759406	      0.21023904	      0.39143095	     -0.04774633	      0.15970002	      0.36132088	     -0.59686261	      1.16627408	      2.67941111	      0.00000000	      0.00000000	     -0.00000000	      0.00000000	      0.00000000	     61.20087180	    -11.28430933	     19.12944001	     40.60814633	     59.42711436	      0.00000000	      5.00000015	     64.13004856	     -9.01502696	     26.44196881	     36.13457566	     60.38621210	      0.00000000	      5.00000015
      7.88300000	    -43.79708284	      0.18844167	     -3.18279516	     -0.38321027	      1.12188900	      0.01549382	     83.54936469	     -3.44607836	     -4.09829060	     68.00599250	      1.18692848	     -0.95701287	     -6.85152135	      0.00000000	    111.89990821	     -2.08465468	      9.69548231	     84.64956107	      1.47741355	     15.01847816	     -9.23936345	      0.00000000	     -0.08257416	      0.15176019	      0.48611456	     -0.15334848	      0.20184106	      0.51649672	     -0.13566109	      0.36898974	      0.51649672	     -0.09437401	      0.36898974	      0.42535024	     -0.07667837	      0.30946939	      0.39496808	     -0.04718288	      0.23507654	      0.36458592	     -0.58981900	      1.71674168	      2.70362332	      0.00000000	      0.00000000	     -0.00000000	      0.00000000	      0.00000000	     61.29367279	    -11.45616271	     19.27635822	     40.61000850	     59.45365528	      0.00000000	      5.00000015	     64.07584967	     -8.74483282	     25.91024467	     35.85502403	     60.31900972	      0.00000000	      5.00000015
